:FULLY-SPECIFIED
:FORCE-ALL-JOINTS-BE-3DOF
:DEGREES
476
root 3.48253 16.3343 -7.18711 30.2453 60.738 17.2629
lfemur -42.4207 2.62384 -24.086
ltibia 48.9516 0 0
lfoot -19.7945 -0.995537 0
ltoes 19.5431 0 0
rfemur -20.9687 -2.28176 12.4226
rtibia 68.9102 0 0
rfoot 25.8662 -3.06147 0
rtoes -28.87 0 0
lowerback 0.622445 -0.352504 2.42462
upperback -0.828454 -0.449019 1.07459
thorax -1.20447 -0.238198 -0.227042
lowerneck -8.38053 -6.4092 0.884878
upperneck 3.3159 -8.72591 1.35558
head 2.57285 -4.28102 -0.102527
lclavicle -2.75816e-14 -1.69493e-14 0
lhumerus -49.0939 -26.33 108.255
lradius 54.2778 0 0
lwrist 2.82503 0 0
lhand -11.1162 -7.07448 0
lfingers 7.12502 0 0
lthumb 14.8967 22.1293 0
rclavicle -2.75816e-14 -1.69493e-14 0
rhumerus -56.4145 -1.71637 -86.0636
rradius 57.6252 0 0
rwrist 18.1291 0 0
rhand -31.6586 -28.3392 0
rfingers 7.12502 0 0
rthumb -4.89328 -778.771 0
477
root 3.54222 16.345 -7.16557 30.7712 61.3339 18.1111
lfemur -41.4676 1.35992 -23.9464
ltibia 48.5334 0 0
lfoot -19.8984 -1.08897 0
ltoes 19.4453 0 0
rfemur -22.908 -2.20398 12.2017
rtibia 71.0654 0 0
rfoot 24.9776 -2.13346 0
rtoes -27.4598 0 0
lowerback 0.819648 -0.358142 2.15682
upperback -0.777085 -0.456565 0.965683
thorax -1.26061 -0.24087 -0.190589
lowerneck -8.38177 -6.49568 0.795221
upperneck 3.35948 -8.8354 1.40994
head 2.59922 -4.3345 -0.0785212
lclavicle -2.34076e-14 -1.57942e-14 0
lhumerus -49.1046 -26.6675 108.363
lradius 54.5374 0 0
lwrist 3.1121 0 0
lhand -9.95415 -6.35373 0
lfingers 7.12502 0 0
lthumb 16.0162 22.7761 0
rclavicle -2.34076e-14 -1.57942e-14 0
rhumerus -56.1543 -1.21301 -86.6538
rradius 57.7527 0 0
rwrist 18.654 0 0
rhand -31.3635 -28.0853 0
rfingers 7.12502 0 0
rthumb -4.60788 -778.526 0
478
root 3.60822 16.3556 -7.1383 30.5352 61.9974 18.2176
lfemur -40.4738 0.0552405 -23.8015
ltibia 48.1319 0 0
lfoot -20.0222 -1.20259 0
ltoes 19.316 0 0
rfemur -24.9372 -2.09199 11.9648
rtibia 73.1389 0 0
rfoot 24.0463 -1.18707 0
rtoes -26.0442 0 0
lowerback 1.03951 -0.362282 1.88372
upperback -0.720202 -0.462055 0.863995
thorax -1.32376 -0.24233 -0.143729
lowerneck -8.38545 -6.5973 0.693568
upperneck 3.4303 -8.9645 1.46578
head 2.63445 -4.39745 -0.0546501
lclavicle -1.92857e-14 -1.45507e-14 0
lhumerus -49.11 -27.0281 108.503
lradius 54.7981 0 0
lwrist 3.40097 0 0
lhand -8.75163 -5.62459 0
lfingers 7.12502 0 0
lthumb 17.1744 23.4244 0
rclavicle -1.92857e-14 -1.45507e-14 0
rhumerus -55.7896 -0.532739 -87.2214
rradius 58.0662 0 0
rwrist 19.1207 0 0
rhand -30.9175 -27.7738 0
rfingers 7.12502 0 0
rthumb -4.17751 -778.209 0
479
root 3.68212 16.3665 -7.10358 29.4277 62.7633 17.4764
lfemur -39.4373 -1.29542 -23.6652
ltibia 47.7453 0 0
lfoot -20.1658 -1.33429 0
ltoes 19.1669 0 0
rfemur -27.0605 -1.94038 11.7127
rtibia 75.1189 0 0
rfoot 23.0916 -0.220032 0
rtoes -24.6211 0 0
lowerback 1.28157 -0.365633 1.60523
upperback -0.658202 -0.466566 0.771432
thorax -1.39417 -0.243082 -0.084337
lowerneck -8.39254 -6.71907 0.576262
upperneck 3.53362 -9.11969 1.52361
head 2.68032 -4.47305 -0.0306667
lclavicle -1.52794e-14 -1.32245e-14 0
lhumerus -49.1142 -27.4122 108.686
lradius 55.0586 0 0
lwrist 3.68749 0 0
lhand -7.50541 -4.89332 0
lfingers 7.12502 0 0
lthumb 18.3743 24.0671 0
rclavicle -1.52794e-14 -1.32245e-14 0
rhumerus -55.3099 0.349158 -87.7572
rradius 58.5894 0 0
rwrist 19.5193 0 0
rhand -30.2992 -27.3972 0
rfingers 7.12502 0 0
rthumb -3.58176 -777.809 0
480
root 3.76551 16.3784 -7.05969 27.3388 63.6661 15.7818
lfemur -38.3555 -2.69728 -23.5519
ltibia 47.3721 0 0
lfoot -20.3289 -1.48197 0
ltoes 19.01 0 0
rfemur -29.2824 -1.74374 11.4461
rtibia 76.9939 0 0
rfoot 22.1331 0.769953 0
rtoes -23.1884 0 0
lowerback 1.54538 -0.368902 1.3213
upperback -0.59148 -0.471174 0.689905
thorax -1.47207 -0.243634 -0.0102922
lowerneck -8.40403 -6.86602 0.439646
upperneck 3.67471 -9.30747 1.58396
head 2.73863 -4.56446 -0.00632458
lclavicle -1.14523e-14 -1.18209e-14 0
lhumerus -49.1209 -27.8201 108.92
lradius 55.3173 0 0
lwrist 3.96754 0 0
lhand -6.21227 -4.16617 0
lfingers 7.12502 0 0
lthumb 19.6189 24.6971 0
rclavicle -1.14523e-14 -1.18209e-14 0
rhumerus -54.7046 1.45739 -88.252
rradius 59.3462 0 0
rwrist 19.8399 0 0
rhand -29.4876 -26.9478 0
rfingers 7.12502 0 0
rthumb -2.80023 -777.317 0
481
root 3.85997 16.3915 -7.00491 24.1587 64.7405 13.0282
lfemur -37.2262 -4.15559 -23.4755
ltibia 47.0104 0 0
lfoot -20.5114 -1.64353 0
ltoes 18.8571 0 0
rfemur -31.6072 -1.49666 11.1659
rtibia 78.7521 0 0
rfoot 21.1901 1.78517 0
rtoes -21.7439 0 0
lowerback 1.83048 -0.372797 1.03183
upperback -0.520433 -0.476952 0.621322
thorax -1.55769 -0.244493 0.0805281
lowerneck -8.42089 -7.04317 0.280063
upperneck 3.85887 -9.53433 1.64734
head 2.81115 -4.67486 0.0186228
lclavicle -7.86803e-15 -1.03453e-14 0
lhumerus -49.1341 -28.2522 109.216
lradius 55.5728 0 0
lwrist 4.23698 0 0
lhand -4.86896 -3.44943 0
lfingers 7.12502 0 0
lthumb 20.9113 25.3071 0
rclavicle -7.86803e-15 -1.03453e-14 0
rhumerus -53.9631 2.81665 -88.6966
rradius 60.3603 0 0
rwrist 20.0726 0 0
rhand -28.4612 -26.4177 0
rfingers 7.12502 0 0
rthumb -1.81254 -776.723 0
482
root 3.96712 16.4065 -6.93753 19.7778 66.0211 9.10978
lfemur -36.0471 -5.67556 -23.4501
ltibia 46.6586 0 0
lfoot -20.7131 -1.81686 0
ltoes 18.72 0 0
rfemur -34.0394 -1.19373 10.8726
rtibia 80.3818 0 0
rfoot 20.2819 2.82789 0
rtoes -20.2855 0 0
lowerback 2.13641 -0.378026 0.736764
upperback -0.445456 -0.484978 0.56759
thorax -1.65126 -0.246164 0.190246
lowerneck -8.44412 -7.25554 0.0938547
upperneck 4.09135 -9.80676 1.71427
head 2.89967 -4.80744 0.0444218
lclavicle -4.59016e-15 -8.80323e-15 0
lhumerus -49.1575 -28.7089 109.584
lradius 55.8236 0 0
lwrist 4.49166 0 0
lhand -3.47226 -2.74934 0
lfingers 7.12502 0 0
lthumb 22.2545 25.8899 0
rclavicle -4.59016e-15 -8.80323e-15 0
rhumerus -53.0748 4.45165 -89.0819
rradius 61.6557 0 0
rwrist 20.2075 0 0
rhand -27.199 -25.7993 0
rfingers 7.12502 0 0
rthumb -0.598272 -776.018 0
483
root 4.08852 16.4237 -6.85583 14.0861 67.5426 3.92078
lfemur -34.8158 -7.26243 -23.49
ltibia 46.315 0 0
lfoot -20.9338 -1.99987 0
ltoes 18.6107 0 0
rfemur -36.5833 -0.829543 10.567
rtibia 81.8712 0 0
rfoot 19.428 3.90042 0
rtoes -18.811 0 0
lowerback 2.46272 -0.385295 0.436026
upperback -0.366945 -0.496326 0.53062
thorax -1.75303 -0.249154 0.320984
lowerneck -8.47468 -7.50814 -0.122636
upperneck 4.37744 -10.1313 1.78528
head 3.00598 -4.96535 0.0713192
lclavicle -1.68228e-15 -7.20002e-15 0
lhumerus -49.195 -29.1905 110.032
lradius 56.0684 0 0
lwrist 4.72746 0 0
lhand -2.01893 -2.07219 0
lfingers 7.12502 0 0
lthumb 23.6517 26.4383 0
rclavicle -1.68228e-15 -7.20002e-15 0
rhumerus -52.0293 6.38711 -89.3986
rradius 63.256 0 0
rwrist 20.2348 0 0
rhand -25.6796 -25.085 0
rfingers 7.12502 0 0
rthumb 0.862957 -775.19 0
484
root 4.22579 16.4437 -6.75809 6.97404 69.3397 -2.6445
lfemur -33.53 -8.92142 -23.6091
ltibia 45.9779 0 0
lfoot -21.1734 -2.19044 0
ltoes 18.5409 0 0
rfemur -39.2433 -0.398685 10.2498
rtibia 83.2088 0 0
rfoot 18.6477 5.00504 0
rtoes -17.3184 0 0
lowerback 2.80895 -0.395314 0.129542
upperback -0.285297 -0.512072 0.512318
thorax -1.86323 -0.25397 0.474865
lowerneck -8.51357 -7.80601 -0.373066
upperneck 4.72242 -10.5143 1.86088
head 3.13186 -5.15179 0.0995613
lclavicle 7.92033e-16 -5.54112e-15 0
lhumerus -49.2505 -29.6974 110.571
lradius 56.3056 0 0
lwrist 4.94023 0 0
lhand -0.505724 -1.42422 0
lfingers 7.12502 0 0
lthumb 25.1059 26.9452 0
rclavicle 7.92033e-16 -5.54112e-15 0
rhumerus -50.8159 8.64771 -89.6376
rradius 65.185 0 0
rwrist 20.1445 0 0
rhand -23.8818 -24.267 0
rfingers 7.12502 0 0
rthumb 2.59155 -774.231 0
485
root 4.3613 16.4654 -6.65855 -0.868535 71.2284 -9.95279
lfemur -32.2877 -10.5267 -23.7517
ltibia 45.6412 0 0
lfoot -21.4085 -2.41005 0
ltoes 18.5093 0 0
rfemur -41.8214 0.0670438 9.96673
rtibia 84.3177 0 0
rfoot 17.9284 6.03678 0
rtoes -15.9057 0 0
lowerback 3.14477 -0.40663 -0.162556
upperback -0.212431 -0.531614 0.501683
thorax -1.97658 -0.260929 0.629287
lowerneck -8.56195 -8.10265 -0.620541
upperneck 5.08498 -10.8954 1.92701
head 3.26167 -5.33743 0.124007
lclavicle 2.85131e-15 -3.92069e-15 0
lhumerus -49.3143 -30.2063 111.142
lradius 56.5096 0 0
lwrist 5.09581 0 0
lhand 0.986908 -0.827332 0
lfingers 7.12502 0 0
lthumb 26.5397 27.3954 0
rclavicle 2.85131e-15 -3.92069e-15 0
rhumerus -49.6261 11.1037 -89.8151
rradius 67.2067 0 0
rwrist 20.0696 0 0
rhand -21.9058 -23.399 0
rfingers 7.12502 0 0
rthumb 4.49109 -773.2 0
